<svg xmlns="http://www.w3.org/2000/svg" width="20" height="14"><path d="M17.27 1.739a9.714 9.714 0 00-4.54-1.753l-.23.427a8.9 8.9 0 014.32 2.2 14.143 14.143 0 00-13.64 0 9.046 9.046 0 014.31-2.2l-.22-.427a9.723 9.723 0 00-4.55 1.753S.39 4.993-.01 11.381a8.779 8.779 0 005.92 2.629l.74-.957a9.2 9.2 0 01-3.93-2.549 13.168 13.168 0 0014.55 0 9.12 9.12 0 01-3.92 2.549l.74.957A8.747 8.747 0 0020 11.381c-.4-6.388-2.73-9.642-2.73-9.642zM7.04 9.628a1.762 1.762 0 111.59-1.753 1.676 1.676 0 01-1.59 1.753zm5.91 0a1.761 1.761 0 111.6-1.753 1.676 1.676 0 01-1.6 1.753z" fill="#fff" fill-rule="evenodd"/></svg>
